<?xml version="1.0" encoding="UTF-8" standalone="no"?>
<!-- Generator: Adobe Illustrator 21.0.0, SVG Export Plug-In . SVG Version: 6.00 Build 0)  -->

<svg
   xmlns:dc="http://purl.org/dc/elements/1.1/"
   xmlns:cc="http://creativecommons.org/ns#"
   xmlns:rdf="http://www.w3.org/1999/02/22-rdf-syntax-ns#"
   xmlns:svg="http://www.w3.org/2000/svg"
   xmlns="http://www.w3.org/2000/svg"
   xmlns:sodipodi="http://sodipodi.sourceforge.net/DTD/sodipodi-0.dtd"
   xmlns:inkscape="http://www.inkscape.org/namespaces/inkscape"
   version="1.1"
   id="Layer_1"
   x="0px"
   y="0px"
   width="68px"
   height="68px"
   viewBox="0 0 68 68"
   style="enable-background:new 0 0 68 68;"
   xml:space="preserve"
   sodipodi:docname="cat-eye.svg"
   inkscape:version="0.92.2 (5c3e80d, 2017-08-06)"><metadata
     id="metadata24"><rdf:RDF><cc:Work
         rdf:about=""><dc:format>image/svg+xml</dc:format><dc:type
           rdf:resource="http://purl.org/dc/dcmitype/StillImage" /><dc:title></dc:title></cc:Work></rdf:RDF></metadata><defs
     id="defs22" /><sodipodi:namedview
     pagecolor="#ffffff"
     bordercolor="#666666"
     borderopacity="1"
     objecttolerance="2"
     gridtolerance="10"
     guidetolerance="10"
     inkscape:pageopacity="0"
     inkscape:pageshadow="2"
     inkscape:window-width="1920"
     inkscape:window-height="1177"
     id="namedview20"
     showgrid="false"
     inkscape:zoom="9.8163059"
     inkscape:cx="35.692864"
     inkscape:cy="23.978089"
     inkscape:window-x="-8"
     inkscape:window-y="-8"
     inkscape:window-maximized="1"
     inkscape:current-layer="Layer_1" /><style
     type="text/css"
     id="style2">
	.st0{fill:none;stroke:#00DCF0;stroke-width:0.2835;stroke-linecap:round;stroke-linejoin:round;stroke-miterlimit:10;}
	.st1{fill:none;stroke:#00DCF0;stroke-width:0.2835;stroke-miterlimit:10;}
	.st2{fill:none;stroke:#000000;stroke-width:0.2835;stroke-linecap:round;stroke-linejoin:round;stroke-miterlimit:10;}
	.st3{fill:none;stroke:#F00000;stroke-width:0.2835;stroke-linecap:round;stroke-linejoin:round;stroke-miterlimit:10;}
</style><rect
     x="-8.5"
     y="-8.5"
     class="st0"
     width="85"
     height="85"
     id="rect4" /><circle
     class="st0"
     cx="34"
     cy="34"
     r="34"
     id="circle6" /><path
     id="scleraBack"
     class="st0"
     d="M34,10c-13.3,0-24,10.7-24,24s10.7,24.1,24,24.1S58.1,47.3,58.1,34S47.3,10,34,10" /><path
     id="scleraFront"
     class="st1"
     d="M34,13.5c11.3,0,20.5,9.2,20.5,20.5S45.3,54.5,34,54.5S13.5,45.3,13.5,34S22.7,13.5,34,13.5" /><path
     id="iris"
     class="st2"
     d="M34,11.1c12.8,0,22.9,10.3,22.9,22.9S46.8,56.9,34,56.9S11.1,46.8,11.1,34S21.2,11.1,34,11.1" /><path
     id="pupilMax"
     class="st2"
     d="m 34.219828,15.113099 c 9.077894,3.9 15.085324,11.2 15.085324,19.6 0,8.4 -6.00743,15.7 -15.085324,19.6 -9.077894,-3.9 -15.085324,-11.2 -15.085324,-19.6 0,-8.4 6.00743,-15.7 15.085324,-19.6"
     inkscape:connector-curvature="0"
     style="fill:none;stroke:#000000;stroke-width:0.32756022;stroke-linecap:round;stroke-linejoin:round;stroke-miterlimit:10" /><path
     id="pupilMin"
     class="st2"
     d="m 34.377969,18.304034 c 0.833137,4.84809 1.295991,9.938585 1.295991,15.271485 0,5.3329 -0.462854,10.423395 -1.295991,15.271485 -0.833138,-4.84809 -1.295992,-9.938585 -1.295992,-15.271485 0,-5.3329 0.462854,-10.423395 1.295992,-15.271485"
     inkscape:connector-curvature="0"
     style="fill:none;stroke:#000000;stroke-width:0.17337435;stroke-linecap:round;stroke-linejoin:round;stroke-miterlimit:10" /><path
     id="lowerLidEdge"
     class="st3"
     d="M71.5,23.7c0.2,0.8,1,5.3,1.1,6.1C74.9,51,59.6,70.1,38.4,72.5C20.8,74.4,3.5,60.6-2.8,45" /><path
     id="lowerLidClosed"
     class="st3"
     d="M66.9,22.2c0.3,4.4-2.2,15.3-10.8,19.4c-10.4,5-20.9,2.5-33.2,1.9  c-9.1-0.4-16.7-1.4-23,0.3c-2.3,0.6-1.9,0.9-2.1,1.5" /><path
     id="lowerLidOpen"
     class="st3"
     d="m 67.814971,19.117662 c 1,12.4 -4.650525,24.731812 -11.850525,32.231812 -9.8,10.2 -22.262575,10.438247 -33.362575,6.338247 C 10.201871,53.087721 10,49.3 0.5,46 -1.4,45.3 -1.9,46.3 -2,45.4"
     inkscape:connector-curvature="0"
     style="fill:none;stroke:#f00000;stroke-width:0.28349999;stroke-linecap:round;stroke-linejoin:round;stroke-miterlimit:10"
     sodipodi:nodetypes="ccccc" /><path
     id="upperLidEdge"
     class="st3"
     d="M-2.9,44c-1-2.9-1.3-4.8-1.7-8C-6.9,14.8,8.5-2.1,29.7-4.5c20-2.2,37.3,7.4,41.4,26.6" /><path
     id="upperLidClosed"
     class="st3"
     d="M67,23.6c-0.2,5.5-1.7,12.3-7.8,16.8c-6.8,5-13.6,5.4-28.4,4.7C14,44.2,11.9,44.8,5.8,45.2  c-4.4,0.3-7.7-1.1-7.9-2" /><path
     id="upperLidOpen"
     class="st3"
     d="M 67.814971,19.117662 C 62.090645,13.690644 58.413099,12.356139 49.966317,11.602923 37.512409,11.420467 20.167957,18.201282 14.524096,22.386311 9.0811137,25.529312 4.3538317,30.800565 0.78315816,36.91497 -0.17754421,39 -2.3056139,41.937426 -2.3018713,43.607485"
     inkscape:connector-curvature="0"
     style="fill:none;stroke:#f00000;stroke-width:0.28349999;stroke-linecap:round;stroke-linejoin:round;stroke-miterlimit:10"
     sodipodi:nodetypes="ccccc" /></svg>